<svg width="18" height="20" viewBox="0 0 18 20" fill="none" xmlns="http://www.w3.org/2000/svg">
<path d="M16.3656 5.75079H13.4582V5.07554C13.4582 2.62977 11.469 0.640564 9.02333 0.640564C6.57764 0.640564 4.58845 2.62986 4.58845 5.07554V5.75079H1.54438H1.30591L1.29466 5.98899L0.750917 17.4992L0.750869 17.4992L0.750734 17.5041L0.750184 17.5241L0.750148 17.5241L0.750103 17.5283C0.74492 18.0092 0.935512 18.4801 1.27373 18.8217C1.61198 19.1637 2.0807 19.3595 2.56191 19.3595H15.4382C15.9339 19.3595 16.4132 19.1533 16.7542 18.7931L16.7542 18.793C17.0951 18.4328 17.2747 17.943 17.2473 17.4477L16.6153 5.98702L16.6022 5.75079H16.3656ZM6.17985 5.32554H6.17995V5.07554C6.17995 3.50785 7.45566 2.23206 9.02333 2.23206C10.5909 2.23206 11.8667 3.50786 11.8667 5.07554V5.75079H6.17985V5.32554ZM2.40509 17.7024L2.40484 17.7021C2.36654 17.6635 2.34329 17.6094 2.34151 17.5542L2.82388 7.34228H4.58827V8.47445C4.58827 8.91395 4.94451 9.2702 5.38401 9.2702C5.82351 9.2702 6.17976 8.91396 6.17976 8.47445V7.34228H11.8666V8.47445C11.8666 8.91395 12.2229 9.2702 12.6624 9.2702C13.1019 9.2702 13.458 8.9139 13.458 8.47445V7.34228H15.0959L15.6579 17.5355L15.6579 17.536C15.6614 17.5955 15.6395 17.6554 15.5983 17.6988C15.5567 17.7427 15.4978 17.7679 15.4381 17.7679H2.56182C2.50385 17.7679 2.44606 17.7438 2.40509 17.7024Z" fill="black" stroke="black" stroke-width="0.5"/>
</svg>
