<svg width="89" height="88" viewBox="0 0 89 88" fill="none" xmlns="http://www.w3.org/2000/svg">
<path d="M59.1666 44.0001C59.1683 44.8569 58.8699 45.6871 58.3233 46.3468L39.99 68.3468C39.3676 69.0956 38.4732 69.5665 37.5037 69.6559C36.5341 69.7453 35.5687 69.4458 34.82 68.8235C34.0712 68.2011 33.6003 67.3067 33.5109 66.3372C33.4215 65.3676 33.7209 64.4023 34.3433 63.6535L50.77 44.0001L34.93 24.3468C34.6254 23.9717 34.3979 23.5402 34.2607 23.0769C34.1234 22.6137 34.0791 22.1279 34.1302 21.6475C34.1813 21.167 34.3269 20.7014 34.5585 20.2774C34.7901 19.8534 35.1033 19.4794 35.48 19.1768C35.857 18.841 36.2993 18.5867 36.7791 18.4298C37.259 18.2729 37.7661 18.2168 38.2687 18.2649C38.7712 18.3131 39.2584 18.4646 39.6997 18.7098C40.141 18.9551 40.527 19.2888 40.8333 19.6901L58.5433 41.6901C59.0035 42.3688 59.223 43.1821 59.1666 44.0001Z" fill="#464748"/>
</svg>
