<svg width="25" height="25" viewBox="0 0 25 25" fill="none" xmlns="http://www.w3.org/2000/svg">
<path d="M6.5 14.4854C6.08579 14.4854 5.75 14.8211 5.75 15.2354C5.75 15.6496 6.08579 15.9854 6.5 15.9854V14.4854ZM10 15.9854C10.4142 15.9854 10.75 15.6496 10.75 15.2354C10.75 14.8211 10.4142 14.4854 10 14.4854V15.9854ZM5.5 6.98535H19.5V5.48535H5.5V6.98535ZM20.75 8.23535V16.2354H22.25V8.23535H20.75ZM19.5 17.4854H5.5V18.9854H19.5V17.4854ZM4.25 16.2354V8.23535H2.75V16.2354H4.25ZM5.5 17.4854C4.80964 17.4854 4.25 16.9257 4.25 16.2354H2.75C2.75 17.7541 3.98122 18.9854 5.5 18.9854V17.4854ZM20.75 16.2354C20.75 16.9257 20.1904 17.4854 19.5 17.4854V18.9854C21.0188 18.9854 22.25 17.7541 22.25 16.2354H20.75ZM19.5 6.98535C20.1904 6.98535 20.75 7.545 20.75 8.23535H22.25C22.25 6.71657 21.0188 5.48535 19.5 5.48535V6.98535ZM5.5 5.48535C3.98122 5.48535 2.75 6.71657 2.75 8.23535H4.25C4.25 7.545 4.80964 6.98535 5.5 6.98535V5.48535ZM3.5 10.9854H21.5V9.48535H3.5V10.9854ZM6.5 15.9854H10V14.4854H6.5V15.9854Z" fill="black"/>
</svg>
